<svg class="logo" version="1.1" id="Layer_1" xmlns="http://www.w3.org/2000/svg"
	xmlns:xlink="http://www.w3.org/1999/xlink" x="0px" y="0px" width="100%" viewBox="0 0 1729 1722"
	enable-background="new 0 0 1729 1722" xml:space="preserve">
	<path fill="rgba(2,1,0,0)" opacity="1.000000" stroke="none" d="
M1137.000000,1723.000000 
	C758.000122,1723.000000 379.500214,1723.000000 1.000254,1723.000000 
	C1.000169,1149.000244 1.000169,575.000549 1.000085,1.000639 
	C577.332886,1.000426 1153.665771,1.000426 1729.999023,1.000213 
	C1729.999268,574.999390 1729.999268,1148.998779 1729.999634,1722.999023 
	C1532.500000,1723.000000 1335.000000,1723.000000 1137.000000,1723.000000 
M404.075134,1047.804810 
	C414.481842,1056.552856 424.888519,1065.300781 435.486938,1074.209961 
	C439.267944,1069.695312 442.755035,1065.531494 446.466125,1061.100220 
	C422.001282,1040.474365 397.874695,1020.133545 373.030029,999.187378 
	C369.244171,1031.896118 365.567352,1063.662842 361.858215,1095.708618 
	C367.863953,1096.372070 373.216766,1096.963379 378.768066,1097.576660 
	C379.716309,1089.625122 380.604309,1082.207397 381.484589,1074.788940 
	C382.363373,1067.383423 383.234436,1059.977051 384.108887,1052.571045 
	C418.605377,1138.351807 470.620605,1211.056274 541.522278,1270.004883 
	C612.519775,1329.033325 693.544800,1367.214722 784.359436,1383.737915 
	C874.965820,1400.223267 964.164551,1393.763550 1051.461304,1363.994263 
	C1291.260498,1282.219482 1455.022095,1031.751343 1399.743164,756.211609 
	C1374.545044,630.610474 1310.587891,527.316467 1210.535767,447.534088 
	C1101.785767,360.815979 976.964111,322.923859 838.317505,333.218536 
	C598.587219,351.018768 416.513702,528.853455 367.701935,726.379395 
	C371.787140,726.379395 375.754852,726.109314 379.668610,726.453247 
	C383.808655,726.817078 385.603851,725.458923 386.859314,721.264954 
	C429.738678,578.022888 517.784790,471.786285 650.502197,403.427948 
	C731.099243,361.915070 817.432678,344.868103 908.066345,349.739899 
	C943.880432,351.665009 979.086609,357.133911 1013.652466,366.586700 
	C1103.773438,391.232239 1181.493286,437.053650 1246.900757,503.742737 
	C1291.672729,549.391785 1326.735474,601.634705 1351.833252,660.404419 
	C1383.162964,733.767090 1396.627930,810.352661 1392.284668,890.094116 
	C1390.497437,922.905151 1385.973022,955.299683 1377.708496,987.034424 
	C1347.467285,1103.158203 1284.805542,1198.128906 1189.342773,1270.821533 
	C1102.473877,1336.970093 1003.815491,1371.080933 894.808044,1374.885620 
	C847.685364,1376.530151 801.071472,1371.454590 755.398987,1359.669067 
	C641.672119,1330.322388 548.429077,1269.248657 475.637817,1177.144653 
	C444.715027,1138.017456 420.268341,1095.065796 402.871185,1048.017334 
	C403.070587,1047.850220 403.269989,1047.682983 404.075134,1047.804810 
M341.389740,836.839050 
	C341.389740,819.717834 341.389740,802.596619 341.389740,785.302734 
	C334.940918,785.302734 329.026855,785.302734 322.615417,785.302734 
	C322.615417,835.741333 322.615417,885.949463 322.615417,936.474060 
	C328.271362,936.474060 334.016266,936.474060 340.414703,936.474060 
	C340.701111,931.466858 340.987152,926.465515 341.301392,920.971741 
	C343.626740,923.927002 345.322113,926.605469 347.535889,928.748596 
	C349.776794,930.918091 352.339386,932.919495 355.089508,934.373108 
	C378.875885,946.946045 405.910706,935.284485 412.877319,909.450684 
	C417.284119,893.109253 417.024689,876.482117 414.617676,859.943665 
	C413.147980,849.845093 409.497070,840.499146 401.956390,832.921631 
	C389.618073,820.523010 353.488831,819.126831 342.725189,840.579590 
	C342.423615,841.180725 342.299622,841.871033 342.092804,842.519775 
	C341.750031,842.223999 341.407257,841.928284 341.064453,841.632568 
	C341.160980,840.318665 341.257477,839.004761 341.389740,836.839050 
M831.008789,902.132874 
	C830.218201,896.674194 829.427612,891.215515 828.541016,885.094116 
	C855.706848,885.094116 881.609192,885.094116 907.847351,885.094116 
	C907.523499,879.753662 907.426025,874.941467 906.904602,870.175598 
	C905.583862,858.102966 902.739258,846.477112 894.078186,837.354675 
	C881.590881,824.202271 865.656006,822.587769 848.866150,824.850891 
	C830.540771,827.320984 818.488220,837.742737 812.955078,855.184265 
	C807.316528,872.957886 807.703857,890.982544 813.378906,908.689758 
	C817.449646,921.391479 825.698181,930.748718 838.514526,935.252869 
	C853.327393,940.458557 868.314331,940.184204 882.977783,934.729614 
	C893.455627,930.831909 900.663879,923.360474 904.498779,912.285706 
	C900.870483,911.176880 897.471802,910.385986 894.272644,909.099060 
	C890.068542,907.407898 887.147217,907.839417 885.404541,912.547058 
	C884.807617,914.159546 883.273193,915.508667 881.958740,916.759094 
	C865.764282,932.165405 839.260193,924.933289 831.008789,902.132874 
M1170.286743,827.760376 
	C1157.140137,833.100342 1149.116943,843.131409 1145.261475,856.385620 
	C1140.461914,872.885498 1140.679199,889.631592 1145.296387,906.131958 
	C1149.242554,920.234009 1157.781372,930.759216 1172.006470,935.542664 
	C1186.504272,940.417908 1201.198975,940.119629 1215.522827,934.820190 
	C1226.124268,930.898010 1233.428833,923.387207 1237.336426,912.161255 
	C1231.608765,910.555664 1226.389526,909.092590 1221.290771,907.663330 
	C1212.205933,922.757629 1196.107788,928.203369 1180.327026,922.403137 
	C1166.901978,917.468689 1160.327148,898.374207 1162.606812,885.307861 
	C1188.300903,885.307861 1214.066040,885.307861 1240.688354,885.307861 
	C1240.067261,877.975586 1239.791748,871.038940 1238.841675,864.195923 
	C1235.966309,843.490417 1224.385986,829.838989 1205.882690,825.545898 
	C1194.147949,822.823242 1182.430542,823.384644 1170.286743,827.760376 
M998.524353,856.358521 
	C998.703796,859.010315 999.033936,861.661804 999.038879,864.313965 
	C999.079834,886.466919 999.061096,908.620056 999.060364,930.773132 
	C999.060242,932.680847 999.060303,934.588562 999.060303,936.465698 
	C1005.845520,936.465698 1011.764160,936.465698 1017.807617,936.465698 
	C1017.807617,908.857727 1018.185730,881.559326 1017.611389,854.280884 
	C1017.397949,844.146484 1013.923462,834.595581 1004.335876,828.812805 
	C987.384277,818.588257 962.151978,823.794495 950.684326,839.852539 
	C949.989502,840.825562 949.163574,841.704956 947.966919,843.149048 
	C947.522766,837.080200 947.137695,831.818909 946.742981,826.425537 
	C940.784973,826.425537 935.078735,826.425537 929.723267,826.425537 
	C929.723267,863.357666 929.723267,899.929016 929.723267,936.426025 
	C936.181580,936.426025 942.078613,936.426025 948.357971,936.426025 
	C948.357971,934.426758 948.346130,932.785217 948.359680,931.143860 
	C948.537537,909.666931 948.485168,888.184570 948.983154,866.715027 
	C949.306946,852.756104 957.842957,841.529175 970.255676,839.493347 
	C986.833740,836.774414 996.418213,840.835083 998.524353,856.358521 
M759.397095,930.914856 
	C762.576416,927.390076 765.755737,923.865295 769.403687,919.820862 
	C769.740356,925.654297 770.048950,931.000488 770.366577,936.504150 
	C776.408813,936.504150 781.983826,936.504150 787.545654,936.504150 
	C787.545654,899.639526 787.545654,863.070923 787.545654,826.399841 
	C781.096313,826.399841 775.051941,826.399841 768.626404,826.399841 
	C768.626404,828.543945 768.626282,830.356323 768.626343,832.168640 
	C768.627075,851.834900 768.705627,871.501465 768.607910,891.167236 
	C768.499878,912.902832 756.483337,925.249390 736.877258,923.983948 
	C726.575256,923.319092 720.902344,918.663208 719.160706,909.016907 
	C718.454651,905.106079 718.078552,901.083496 718.060120,897.109314 
	C717.958679,875.276978 718.014465,853.443848 718.016357,831.611023 
	C718.016479,829.853271 718.016418,828.095459 718.016418,826.341309 
	C711.395691,826.341309 705.472473,826.341309 699.279724,826.341309 
	C699.195801,827.560669 699.072083,828.522095 699.071777,829.483459 
	C699.062988,854.149597 699.016052,878.815918 699.124451,903.481567 
	C699.140442,907.116577 699.610779,910.811279 700.378540,914.368835 
	C702.186584,922.746887 705.443481,930.591187 713.804138,934.280884 
	C729.184448,941.068665 744.397705,941.132568 759.397095,930.914856 
M563.776978,833.742676 
	C557.404114,826.634705 548.929810,824.643188 539.930725,824.079956 
	C523.674255,823.062500 510.296112,828.149170 501.261200,844.395264 
	C500.944641,837.172668 500.707794,831.768677 500.470184,826.347046 
	C494.240662,826.347046 488.655884,826.347046 483.208069,826.347046 
	C483.208069,863.193604 483.208069,899.756592 483.208069,936.502563 
	C489.603088,936.502563 495.513306,936.502563 501.944000,936.502563 
	C501.944000,934.426941 501.942596,932.640747 501.944244,930.854614 
	C501.963196,910.354980 501.672485,889.849060 502.085907,869.357422 
	C502.531952,847.251465 518.787903,834.458557 538.897827,839.566406 
	C545.425781,841.224548 549.506409,845.168579 550.859436,851.495667 
	C551.929138,856.497925 552.494385,861.696533 552.538086,866.814270 
	C552.721741,888.312744 552.618042,909.813538 552.644409,931.313477 
	C552.646545,933.067017 552.835693,934.820374 552.931885,936.469116 
	C559.423706,936.469116 565.352600,936.469116 571.403687,936.469116 
	C571.559875,935.546265 571.760132,934.912903 571.760803,934.279358 
	C571.786072,910.446228 572.039062,886.609436 571.684631,862.781738 
	C571.536743,852.837769 570.766785,842.732483 563.776978,833.742676 
M1074.028076,937.543274 
	C1076.330322,937.889282 1078.621460,938.396973 1080.936646,938.555359 
	C1097.633057,939.697876 1112.422363,935.942810 1122.675049,921.479248 
	C1126.420776,916.195007 1128.758667,910.264954 1128.987305,903.409912 
	C1122.523682,902.955383 1116.596069,902.538513 1110.475342,902.108093 
	C1110.211426,903.271790 1110.033691,904.208740 1109.785400,905.126648 
	C1106.591309,916.940918 1099.551758,922.925232 1088.059326,923.609985 
	C1075.668945,924.348267 1066.837280,919.214600 1062.845337,907.589111 
	C1060.616333,901.098022 1059.368042,894.058350 1058.984497,887.192932 
	C1058.336792,875.595581 1058.125732,863.872009 1062.822144,852.790833 
	C1066.751465,843.519531 1074.507080,838.881714 1086.040771,838.927734 
	C1096.672974,838.970154 1103.912598,843.380249 1107.468994,852.106934 
	C1108.328247,854.215332 1108.886475,856.446411 1109.669067,858.889648 
	C1115.991821,858.378784 1122.178223,857.878967 1128.399170,857.376343 
	C1125.719971,839.438049 1113.950439,827.672485 1094.480713,824.718262 
	C1070.013672,821.005798 1048.709839,831.080383 1041.812134,857.439331 
	C1037.730103,873.038696 1037.685181,888.775146 1041.550659,904.342529 
	C1045.740723,921.216553 1055.489990,933.205383 1074.028076,937.543274 
M634.098389,785.503113 
	C631.608337,785.424316 629.102295,785.124023 626.630859,785.302795 
	C611.325012,786.410461 603.817749,793.066589 602.229858,807.134155 
	C601.783936,811.085022 602.037842,815.115967 601.993164,819.110474 
	C601.967957,821.366699 601.988586,823.623535 601.988586,826.344360 
	C596.380798,826.344360 591.476990,826.344360 586.550171,826.344360 
	C586.550171,831.068848 586.550171,835.309326 586.550171,840.013977 
	C591.803345,840.013977 596.718689,840.013977 602.181152,840.013977 
	C602.181152,872.490112 602.181152,904.500244 602.181152,936.379639 
	C608.653381,936.379639 614.545837,936.379639 620.898193,936.379639 
	C620.898193,904.091431 620.898193,872.209534 620.898193,839.868774 
	C628.107849,839.868774 634.854797,839.868774 641.642517,839.868774 
	C641.642517,835.031860 641.642517,830.666138 641.642517,825.847839 
	C634.529236,825.847839 627.781677,825.847839 621.003174,825.847839 
	C621.003174,820.744446 620.719604,816.079651 621.069153,811.462830 
	C621.602295,804.420715 624.621704,801.323730 631.618652,800.495239 
	C634.858887,800.111511 638.182251,800.429749 641.680542,800.429749 
	C641.680542,796.024658 641.680542,791.309814 641.680542,786.443665 
	C639.249390,786.136536 637.123535,785.867981 634.098389,785.503113 
M673.009460,927.444336 
	C673.009460,880.083923 673.009460,832.723511 673.009460,785.402283 
	C666.433594,785.402283 660.538513,785.402283 654.518250,785.402283 
	C654.518250,835.908081 654.518250,886.078979 654.518250,936.520325 
	C660.724792,936.520325 666.621155,936.520325 673.009155,936.520325 
	C673.009155,933.660828 673.009155,931.042908 673.009460,927.444336 
M456.012787,829.708984 
	C455.175842,828.495911 454.402344,826.291687 453.491547,826.233459 
	C448.245728,825.897766 442.967407,826.069763 437.496490,826.069763 
	C437.496490,863.173096 437.496490,899.680420 437.496490,936.489502 
	C443.682404,936.489502 449.575134,936.489502 456.013824,936.489502 
	C456.013824,901.103516 456.013824,865.886475 456.012787,829.708984 
M456.012634,795.459717 
	C456.012634,792.053772 456.012634,788.647827 456.012634,785.419922 
	C449.365326,785.419922 443.475128,785.419922 437.465210,785.419922 
	C437.465210,791.351685 437.465210,796.923950 437.465210,802.683899 
	C443.739044,802.683899 449.755341,802.683899 456.012573,802.683899 
	C456.012573,800.381897 456.012573,798.408020 456.012634,795.459717 
z" />
	<path class="arrow" fill="rgba(76,79,86,100)" opacity="1.000000" stroke="rgba(76,79,86,100)" d="
M402.262085,1048.505615 
	C420.268341,1095.065796 444.715027,1138.017456 475.637817,1177.144653 
	C548.429077,1269.248657 641.672119,1330.322388 755.398987,1359.669067 
	C801.071472,1371.454590 847.685364,1376.530151 894.808044,1374.885620 
	C1003.815491,1371.080933 1102.473877,1336.970093 1189.342773,1270.821533 
	C1284.805542,1198.128906 1347.467285,1103.158203 1377.708496,987.034424 
	C1385.973022,955.299683 1390.497437,922.905151 1392.284668,890.094116 
	C1396.627930,810.352661 1383.162964,733.767090 1351.833252,660.404419 
	C1326.735474,601.634705 1291.672729,549.391785 1246.900757,503.742737 
	C1181.493286,437.053650 1103.773438,391.232239 1013.652466,366.586700 
	C979.086609,357.133911 943.880432,351.665009 908.066345,349.739899 
	C817.432678,344.868103 731.099243,361.915070 650.502197,403.427948 
	C517.784790,471.786285 429.738678,578.022888 386.859314,721.264954 
	C385.603851,725.458923 383.808655,726.817078 379.668610,726.453247 
	C375.754852,726.109314 371.787140,726.379395 367.701935,726.379395 
	C416.513702,528.853455 598.587219,351.018768 838.317505,333.218536 
	C976.964111,322.923859 1101.785767,360.815979 1210.535767,447.534088 
	C1310.587891,527.316467 1374.545044,630.610474 1399.743164,756.211609 
	C1455.022095,1031.751343 1291.260498,1282.219482 1051.461304,1363.994263 
	C964.164551,1393.763550 874.965820,1400.223267 784.359436,1383.737915 
	C693.544800,1367.214722 612.519775,1329.033325 541.522278,1270.004883 
	C470.620605,1211.056274 418.605377,1138.351807 384.108887,1052.571045 
	C383.234436,1059.977051 382.363373,1067.383423 381.484589,1074.788940 
	C380.604309,1082.207397 379.716309,1089.625122 378.768066,1097.576660 
	C373.216766,1096.963379 367.863953,1096.372070 361.858215,1095.708618 
	C365.567352,1063.662842 369.244171,1031.896118 373.030029,999.187378 
	C397.874695,1020.133545 422.001282,1040.474365 446.466125,1061.100220 
	C442.755035,1065.531494 439.267944,1069.695312 435.486938,1074.209961 
	C424.888519,1065.300781 414.481842,1056.552856 403.550781,1047.408936 
	C402.771637,1047.510620 402.516876,1048.008179 402.262085,1048.505615 
z" />
	<g class="word-binfluence">
		<path class="letter-b" fill="rgba(76,79,86,100)" opacity="1.000000" stroke="none" d="
M341.371857,837.264954 
	C341.257477,839.004761 341.160980,840.318665 341.064453,841.632568 
	C341.407257,841.928284 341.750031,842.223999 342.092804,842.519775 
	C342.299622,841.871033 342.423615,841.180725 342.725189,840.579590 
	C353.488831,819.126831 389.618073,820.523010 401.956390,832.921631 
	C409.497070,840.499146 413.147980,849.845093 414.617676,859.943665 
	C417.024689,876.482117 417.284119,893.109253 412.877319,909.450684 
	C405.910706,935.284485 378.875885,946.946045 355.089508,934.373108 
	C352.339386,932.919495 349.776794,930.918091 347.535889,928.748596 
	C345.322113,926.605469 343.626740,923.927002 341.301392,920.971741 
	C340.987152,926.465515 340.701111,931.466858 340.414703,936.474060 
	C334.016266,936.474060 328.271362,936.474060 322.615417,936.474060 
	C322.615417,885.949463 322.615417,835.741333 322.615417,785.302734 
	C329.026855,785.302734 334.940918,785.302734 341.389740,785.302734 
	C341.389740,802.596619 341.389740,819.717834 341.371857,837.264954 
M363.350311,839.408997 
	C355.115417,841.219788 348.919586,845.933228 346.135010,853.793335 
	C339.733521,871.862793 339.520966,890.329468 345.471924,908.492432 
	C349.252228,920.030212 359.401703,925.514282 372.321564,924.585388 
	C384.058411,923.741577 391.114014,917.686951 393.964325,905.460144 
	C397.442596,890.539795 397.300049,875.438721 394.680634,860.454590 
	C392.946655,850.535217 388.697998,841.821350 377.562042,839.565735 
	C373.253876,838.693054 368.653900,839.260803 363.350311,839.408997 
z" />
		<path class="letter-i-main" fill="rgba(76,79,86,100)" opacity="1.000000" stroke="none" d="
M456.013306,830.189209 
	C456.013824,865.886475 456.013824,901.103516 456.013824,936.489502 
	C449.575134,936.489502 443.682404,936.489502 437.496490,936.489502 
	C437.496490,899.680420 437.496490,863.173096 437.496490,826.069763 
	C442.967407,826.069763 448.245728,825.897766 453.491547,826.233459 
	C454.402344,826.291687 455.175842,828.495911 456.013306,830.189209 
z" />
		<path class="letter-i-dot" fill="rgba(76,79,86,100)" opacity="1.000000" stroke="none" d="
M456.012604,795.946960 
	C456.012573,798.408020 456.012573,800.381897 456.012573,802.683899 
	C449.755341,802.683899 443.739044,802.683899 437.465210,802.683899 
	C437.465210,796.923950 437.465210,791.351685 437.465210,785.419922 
	C443.475128,785.419922 449.365326,785.419922 456.012634,785.419922 
	C456.012634,788.647827 456.012634,792.053772 456.012604,795.946960 
z" />
		<path class="letter-n1" fill="rgba(76,79,86,100)" opacity="1.000000" stroke="none" d="
M563.983398,834.036316 
	C570.766785,842.732483 571.536743,852.837769 571.684631,862.781738 
	C572.039062,886.609436 571.786072,910.446228 571.760803,934.279358 
	C571.760132,934.912903 571.559875,935.546265 571.403687,936.469116 
	C565.352600,936.469116 559.423706,936.469116 552.931885,936.469116 
	C552.835693,934.820374 552.646545,933.067017 552.644409,931.313477 
	C552.618042,909.813538 552.721741,888.312744 552.538086,866.814270 
	C552.494385,861.696533 551.929138,856.497925 550.859436,851.495667 
	C549.506409,845.168579 545.425781,841.224548 538.897827,839.566406 
	C518.787903,834.458557 502.531952,847.251465 502.085907,869.357422 
	C501.672485,889.849060 501.963196,910.354980 501.944244,930.854614 
	C501.942596,932.640747 501.944000,934.426941 501.944000,936.502563 
	C495.513306,936.502563 489.603088,936.502563 483.208069,936.502563 
	C483.208069,899.756592 483.208069,863.193604 483.208069,826.347046 
	C488.655884,826.347046 494.240662,826.347046 500.470184,826.347046 
	C500.707794,831.768677 500.944641,837.172668 501.261200,844.395264 
	C510.296112,828.149170 523.674255,823.062500 539.930725,824.079956 
	C548.929810,824.643188 557.404114,826.634705 563.983398,834.036316 
z" />
		<path class="letter-f" fill="rgba(76,79,86,100)" opacity="1.000000" stroke="none" d="
M634.548035,785.551270 
	C637.123535,785.867981 639.249390,786.136536 641.680542,786.443665 
	C641.680542,791.309814 641.680542,796.024658 641.680542,800.429749 
	C638.182251,800.429749 634.858887,800.111511 631.618652,800.495239 
	C624.621704,801.323730 621.602295,804.420715 621.069153,811.462830 
	C620.719604,816.079651 621.003174,820.744446 621.003174,825.847839 
	C627.781677,825.847839 634.529236,825.847839 641.642517,825.847839 
	C641.642517,830.666138 641.642517,835.031860 641.642517,839.868774 
	C634.854797,839.868774 628.107849,839.868774 620.898193,839.868774 
	C620.898193,872.209534 620.898193,904.091431 620.898193,936.379639 
	C614.545837,936.379639 608.653381,936.379639 602.181152,936.379639 
	C602.181152,904.500244 602.181152,872.490112 602.181152,840.013977 
	C596.718689,840.013977 591.803345,840.013977 586.550171,840.013977 
	C586.550171,835.309326 586.550171,831.068848 586.550171,826.344360 
	C591.476990,826.344360 596.380798,826.344360 601.988586,826.344360 
	C601.988586,823.623535 601.967957,821.366699 601.993164,819.110474 
	C602.037842,815.115967 601.783936,811.085022 602.229858,807.134155 
	C603.817749,793.066589 611.325012,786.410461 626.630859,785.302795 
	C629.102295,785.124023 631.608337,785.424316 634.548035,785.551270 
z" />
		<path class="letter-l" fill="rgba(76,79,86,100)" opacity="1.000000" stroke="none" d="
M673.009277,927.934692 
	C673.009155,931.042908 673.009155,933.660828 673.009155,936.520325 
	C666.621155,936.520325 660.724792,936.520325 654.518250,936.520325 
	C654.518250,886.078979 654.518250,835.908081 654.518250,785.402283 
	C660.538513,785.402283 666.433594,785.402283 673.009460,785.402283 
	C673.009460,832.723511 673.009460,880.083923 673.009277,927.934692 
z" />
		<path class="letter-u" fill="rgba(76,79,86,100)" opacity="1.000000" stroke="none" d="
M759.115601,931.135254 
	C744.397705,941.132568 729.184448,941.068665 713.804138,934.280884 
	C705.443481,930.591187 702.186584,922.746887 700.378540,914.368835 
	C699.610779,910.811279 699.140442,907.116577 699.124451,903.481567 
	C699.016052,878.815918 699.062988,854.149597 699.071777,829.483459 
	C699.072083,828.522095 699.195801,827.560669 699.279724,826.341309 
	C705.472473,826.341309 711.395691,826.341309 718.016418,826.341309 
	C718.016418,828.095459 718.016479,829.853271 718.016357,831.611023 
	C718.014465,853.443848 717.958679,875.276978 718.060120,897.109314 
	C718.078552,901.083496 718.454651,905.106079 719.160706,909.016907 
	C720.902344,918.663208 726.575256,923.319092 736.877258,923.983948 
	C756.483337,925.249390 768.499878,912.902832 768.607910,891.167236 
	C768.705627,871.501465 768.627075,851.834900 768.626343,832.168640 
	C768.626282,830.356323 768.626404,828.543945 768.626404,826.399841 
	C775.051941,826.399841 781.096313,826.399841 787.545654,826.399841 
	C787.545654,863.070923 787.545654,899.639526 787.545654,936.504150 
	C781.983826,936.504150 776.408813,936.504150 770.366577,936.504150 
	C770.048950,931.000488 769.740356,925.654297 769.403687,919.820862 
	C765.755737,923.865295 762.576416,927.390076 759.115601,931.135254 
z" />
		<path class="letter-e1" fill="rgba(76,79,86,100)" opacity="1.000000" stroke="none" d="
M831.092285,902.532227 
	C839.260193,924.933289 865.764282,932.165405 881.958740,916.759094 
	C883.273193,915.508667 884.807617,914.159546 885.404541,912.547058 
	C887.147217,907.839417 890.068542,907.407898 894.272644,909.099060 
	C897.471802,910.385986 900.870483,911.176880 904.498779,912.285706 
	C900.663879,923.360474 893.455627,930.831909 882.977783,934.729614 
	C868.314331,940.184204 853.327393,940.458557 838.514526,935.252869 
	C825.698181,930.748718 817.449646,921.391479 813.378906,908.689758 
	C807.703857,890.982544 807.316528,872.957886 812.955078,855.184265 
	C818.488220,837.742737 830.540771,827.320984 848.866150,824.850891 
	C865.656006,822.587769 881.590881,824.202271 894.078186,837.354675 
	C902.739258,846.477112 905.583862,858.102966 906.904602,870.175598 
	C907.426025,874.941467 907.523499,879.753662 907.847351,885.094116 
	C881.609192,885.094116 855.706848,885.094116 828.541016,885.094116 
	C829.427612,891.215515 830.218201,896.674194 831.092285,902.532227 
M838.461609,845.969421 
	C831.953247,852.885193 829.806396,861.415955 829.296936,870.670776 
	C848.856140,870.670776 868.359558,870.670776 888.131409,870.670776 
	C886.328918,858.078796 884.230896,845.788757 871.059143,840.459778 
	C859.697510,835.863159 848.598694,837.013550 838.461609,845.969421 
z" />
		<path class="letter-n2" fill="rgba(76,79,86,100)" opacity="1.000000" stroke="none" d="
M998.411743,855.937744 
	C996.418213,840.835083 986.833740,836.774414 970.255676,839.493347 
	C957.842957,841.529175 949.306946,852.756104 948.983154,866.715027 
	C948.485168,888.184570 948.537537,909.666931 948.359680,931.143860 
	C948.346130,932.785217 948.357971,934.426758 948.357971,936.426025 
	C942.078613,936.426025 936.181580,936.426025 929.723267,936.426025 
	C929.723267,899.929016 929.723267,863.357666 929.723267,826.425537 
	C935.078735,826.425537 940.784973,826.425537 946.742981,826.425537 
	C947.137695,831.818909 947.522766,837.080200 947.966919,843.149048 
	C949.163574,841.704956 949.989502,840.825562 950.684326,839.852539 
	C962.151978,823.794495 987.384277,818.588257 1004.335876,828.812805 
	C1013.923462,834.595581 1017.397949,844.146484 1017.611389,854.280884 
	C1018.185730,881.559326 1017.807617,908.857727 1017.807617,936.465698 
	C1011.764160,936.465698 1005.845520,936.465698 999.060303,936.465698 
	C999.060303,934.588562 999.060242,932.680847 999.060364,930.773132 
	C999.061096,908.620056 999.079834,886.466919 999.038879,864.313965 
	C999.033936,861.661804 998.703796,859.010315 998.411743,855.937744 
z" />
		<path class="letter-c" fill="rgba(76,79,86,100)" opacity="1.000000" stroke="none" d="
M1073.633057,937.399475 
	C1055.489990,933.205383 1045.740723,921.216553 1041.550659,904.342529 
	C1037.685181,888.775146 1037.730103,873.038696 1041.812134,857.439331 
	C1048.709839,831.080383 1070.013672,821.005798 1094.480713,824.718262 
	C1113.950439,827.672485 1125.719971,839.438049 1128.399170,857.376343 
	C1122.178223,857.878967 1115.991821,858.378784 1109.669067,858.889648 
	C1108.886475,856.446411 1108.328247,854.215332 1107.468994,852.106934 
	C1103.912598,843.380249 1096.672974,838.970154 1086.040771,838.927734 
	C1074.507080,838.881714 1066.751465,843.519531 1062.822144,852.790833 
	C1058.125732,863.872009 1058.336792,875.595581 1058.984497,887.192932 
	C1059.368042,894.058350 1060.616333,901.098022 1062.845337,907.589111 
	C1066.837280,919.214600 1075.668945,924.348267 1088.059326,923.609985 
	C1099.551758,922.925232 1106.591309,916.940918 1109.785400,905.126648 
	C1110.033691,904.208740 1110.211426,903.271790 1110.475342,902.108093 
	C1116.596069,902.538513 1122.523682,902.955383 1128.987305,903.409912 
	C1128.758667,910.264954 1126.420776,916.195007 1122.675049,921.479248 
	C1112.422363,935.942810 1097.633057,939.697876 1080.936646,938.555359 
	C1078.621460,938.396973 1076.330322,937.889282 1073.633057,937.399475 
z" />
		<path class="letter-e2" fill="rgba(76,79,86,100)" opacity="1.000000" stroke="none" d="
M1170.631348,827.582153 
	C1182.430542,823.384644 1194.147949,822.823242 1205.882690,825.545898 
	C1224.385986,829.838989 1235.966309,843.490417 1238.841675,864.195923 
	C1239.791748,871.038940 1240.067261,877.975586 1240.688354,885.307861 
	C1214.066040,885.307861 1188.300903,885.307861 1162.606812,885.307861 
	C1160.327148,898.374207 1166.901978,917.468689 1180.327026,922.403137 
	C1196.107788,928.203369 1212.205933,922.757629 1221.290771,907.663330 
	C1226.389526,909.092590 1231.608765,910.555664 1237.336426,912.161255 
	C1233.428833,923.387207 1226.124268,930.898010 1215.522827,934.820190 
	C1201.198975,940.119629 1186.504272,940.417908 1172.006470,935.542664 
	C1157.781372,930.759216 1149.242554,920.234009 1145.296387,906.131958 
	C1140.679199,889.631592 1140.461914,872.885498 1145.261475,856.385620 
	C1149.116943,843.131409 1157.140137,833.100342 1170.631348,827.582153 
M1178.502441,870.995605 
	C1192.566162,870.995605 1206.629761,870.995605 1220.731934,870.995605 
	C1218.601074,844.738281 1205.687134,836.971558 1188.235107,838.188049 
	C1171.133057,839.380188 1161.712524,854.892151 1162.584595,870.995605 
	C1167.545898,870.995605 1172.525024,870.995605 1178.502441,870.995605 
z" />
		<path class="letter-b-inner" opacity="0.000000" stroke="none" d="
M363.768616,839.290649 
	C368.653900,839.260803 373.253876,838.693054 377.562042,839.565735 
	C388.697998,841.821350 392.946655,850.535217 394.680634,860.454590 
	C397.300049,875.438721 397.442596,890.539795 393.964325,905.460144 
	C391.114014,917.686951 384.058411,923.741577 372.321564,924.585388 
	C359.401703,925.514282 349.252228,920.030212 345.471924,908.492432 
	C339.520966,890.329468 339.733521,871.862793 346.135010,853.793335 
	C348.919586,845.933228 355.115417,841.219788 363.768616,839.290649 
z" />
		<path class="letter-e1-inner" opacity="0.000000" stroke="none" d="
M838.699524,845.697876 
	C848.598694,837.013550 859.697510,835.863159 871.059143,840.459778 
	C884.230896,845.788757 886.328918,858.078796 888.131409,870.670776 
	C868.359558,870.670776 848.856140,870.670776 829.296936,870.670776 
	C829.806396,861.415955 831.953247,852.885193 838.699524,845.697876 
z" />
		<path class="letter-e2-inner" opacity="0.000000" stroke="none" d="
M1178.003418,870.995605 
	C1172.525024,870.995605 1167.545898,870.995605 1162.584595,870.995605 
	C1161.712524,854.892151 1171.133057,839.380188 1188.235107,838.188049 
	C1205.687134,836.971558 1218.601074,844.738281 1220.731934,870.995605 
	C1206.629761,870.995605 1192.566162,870.995605 1178.003418,870.995605 
z" />
	</g>
</svg>